<svg width="200" height="200" viewBox="0 0 200 200" xmlns="http://www.w3.org/2000/svg">
  <!-- Boxxy the Boxer Dog -->
  
  <!-- Body -->
  <ellipse cx="100" cy="140" rx="50" ry="40" fill="#d4a574" stroke="#b8935f" stroke-width="2"/>
  
  <!-- Head -->
  <circle cx="100" cy="80" r="45" fill="#d4a574" stroke="#b8935f" stroke-width="2"/>
  
  <!-- Ears -->
  <ellipse cx="70" cy="60" rx="15" ry="30" fill="#d4a574" stroke="#b8935f" stroke-width="2" transform="rotate(-20 70 60)"/>
  <ellipse cx="130" cy="60" rx="15" ry="30" fill="#d4a574" stroke="#b8935f" stroke-width="2" transform="rotate(20 130 60)"/>
  
  <!-- Face markings (white patches) -->
  <ellipse cx="100" cy="85" rx="30" ry="25" fill="#fff" opacity="0.8"/>
  
  <!-- Snout -->
  <ellipse cx="100" cy="95" rx="20" ry="15" fill="#a67c52"/>
  <ellipse cx="100" cy="100" rx="10" ry="8" fill="#333"/>
  
  <!-- Eyes -->
  <circle cx="85" cy="75" r="8" fill="#333"/>
  <circle cx="115" cy="75" r="8" fill="#333"/>
  <circle cx="87" cy="73" r="3" fill="#fff"/>
  <circle cx="117" cy="73" r="3" fill="#fff"/>
  
  <!-- Collar with pill box tag -->
  <rect x="75" y="115" width="50" height="8" rx="4" fill="#ef4444"/>
  <rect x="95" y="118" width="10" height="15" fill="#3b82f6" stroke="#1e40af" stroke-width="1" rx="2"/>
  <text x="100" y="128" font-size="10" fill="#fff" text-anchor="middle" font-weight="bold">💊</text>
  
  <!-- Smile -->
  <path d="M 90 88 Q 100 92 110 88" stroke="#333" stroke-width="2" fill="none" stroke-linecap="round"/>
  
  <!-- Paws -->
  <ellipse cx="80" cy="175" rx="12" ry="8" fill="#a67c52"/>
  <ellipse cx="120" cy="175" rx="12" ry="8" fill="#a67c52"/>
</svg>
